<svg width="63" height="20" viewBox="0 0 63 20" fill="none" xmlns="http://www.w3.org/2000/svg">
<path d="M9.344 18H13.04L9.392 11.04C11.624 10.392 13.016 8.592 13.016 6.216C13.016 3.264 10.904 0.983999 7.592 0.983999H0.944V18H4.28V11.448H6.008L9.344 18ZM4.28 8.592V3.864H6.968C8.648 3.864 9.632 4.8 9.632 6.24C9.632 7.632 8.648 8.592 6.968 8.592H4.28ZM26.1 18V14.88H18.756V10.944H25.404V7.992H18.756V4.104H26.1V0.983999H15.444V18H26.1ZM32.2248 14.928V4.056H34.8888C37.6728 4.056 39.9768 5.808 39.9768 9.504C39.9768 13.2 37.6488 14.928 34.8648 14.928H32.2248ZM34.9848 18C39.8328 18 43.4088 14.88 43.4088 9.504C43.4088 4.128 39.8568 0.983999 35.0088 0.983999H28.9128V18H34.9848ZM44.7719 9.504C44.7719 14.976 48.8999 18.36 53.5079 18.36C55.0919 18.36 56.6279 17.952 57.9479 17.208L60.0359 19.512L62.2199 17.64L60.1799 15.384C61.4759 13.896 62.2679 11.904 62.2679 9.504C62.2679 4.008 58.1399 0.623999 53.5079 0.623999C48.8999 0.623999 44.7719 4.008 44.7719 9.504ZM48.2039 9.48C48.2039 5.64 50.8919 3.816 53.5079 3.816C56.1479 3.816 58.8359 5.64 58.8359 9.48C58.8359 10.872 58.4759 12 57.8999 12.864L55.2359 9.888L53.0279 11.784L55.6919 14.712C55.0199 15 54.2519 15.144 53.5079 15.144C50.8919 15.144 48.2039 13.32 48.2039 9.48Z" fill="black"/>
</svg>
