<svg width="1800" height="670" viewBox="0 0 1800 670" fill="none" xmlns="http://www.w3.org/2000/svg">
<g opacity="0.8">
<path d="M-29.3281 637.264C-13.9862 658.688 78.8329 673.084 100.549 687.045C123.886 702.048 136.954 729.461 148.839 755.461C156.776 772.825 164.893 791 164.603 810.284" stroke="black" stroke-linecap="round" stroke-linejoin="round"/>
<path d="M26.4082 614.986C52.5733 615.772 81.9905 618.327 98.8952 639.452C104.657 646.651 108.364 655.413 113.455 663.157C120.725 674.273 130.92 683.169 142.917 688.866C147.844 691.17 153.158 692.969 157.118 696.83C160.568 700.195 162.649 704.805 164.595 709.32C182.757 751.518 196.24 795.581 204.802 840.718" stroke="black" stroke-linecap="round" stroke-linejoin="round"/>
<path d="M19.0713 570.439C54.5444 571.245 87.0976 591.354 114.78 614.816C123.961 622.596 132.809 630.805 141.651 639.009L157.979 654.159C175.787 670.685 193.702 687.323 208.496 706.894C229.523 734.707 243.592 767.543 257.445 799.998C260.96 808.232 264.474 816.464 267.987 824.695" stroke="black" stroke-linecap="round" stroke-linejoin="round"/>
<path d="M29.8721 547.344C79.5948 563.797 136.073 579.646 181.54 552.748C185.557 550.367 189.649 547.612 194.249 547.428C200.319 547.185 205.622 551.444 210.343 555.484C221.539 565.064 233.508 575.997 235.865 591.017C239.203 612.242 221.978 631.507 221.496 653.017C221.109 670.227 231.4 685.465 241.736 698.77C274.743 741.266 315.573 785.803 313.302 840.736" stroke="black" stroke-linecap="round" stroke-linejoin="round"/>
<path d="M15.1895 516.905C48.1633 530.141 83.6309 536.01 119.11 534.101C131.518 533.418 144.188 531.677 155.203 525.592C161.403 522.163 166.954 517.425 173.444 514.664C190.127 507.564 209.156 514.786 226.958 512.108C244.21 509.515 261.422 497.69 277.807 503.962C290.075 508.659 297.381 522.666 298.667 536.391C299.954 550.117 296.366 563.771 292.811 577.043C284.842 606.794 276.872 636.544 268.902 666.292C267.556 671.32 266.196 676.553 267.033 681.704C268.199 688.876 273.346 694.483 278.271 699.567C296.93 718.823 316.273 737.943 329.574 761.654C342.875 785.364 349.5 814.886 340.662 840.822" stroke="black" stroke-linecap="round" stroke-linejoin="round"/>
<path d="M31.1133 493.783C54.0347 501.499 77.4371 509.299 101.49 509.06C140.003 508.679 175.573 487.898 213.442 480.469C244.676 474.407 276.996 477.505 306.51 489.39C316.485 493.413 326.587 498.845 332.438 508.287C337.635 516.669 338.787 527.147 338.639 537.175C338.078 575.623 320.851 611.28 304.719 645.743C301.377 652.887 297.972 660.756 299.618 668.532C300.972 674.922 305.485 679.942 309.656 684.783C351.39 733.245 375.447 798.311 375.864 863.853" stroke="black" stroke-linecap="round" stroke-linejoin="round"/>
<path d="M404.488 861.824L356.364 718.082C348.736 695.299 341.026 672.076 340.239 647.922C338.608 597.837 366.128 543.98 342.931 500.276C326.982 470.23 291.556 457.392 258.969 457.648C226.383 457.905 194.755 468.536 162.546 473.775C122.096 480.357 80.5124 478.37 40.5453 469.056C13.1645 462.657 -13.3332 452.941 -38.3604 440.122" stroke="black" stroke-linecap="round" stroke-linejoin="round"/>
<path d="M-0.890625 399.977C46.7693 445.74 117.874 462.34 179.332 442.047C196.301 436.444 212.803 428.197 230.54 426.902C243.638 425.942 256.691 428.847 269.495 431.916C304.364 440.272 341.692 451.857 362.999 482.214C387.854 517.624 382.895 566.165 381.908 610.246C379.746 706.988 402.854 804.228 448.011 888.4" stroke="black" stroke-linecap="round" stroke-linejoin="round"/>
<path d="M430.749 809.586C396.823 780.726 384.636 726.699 402.595 684.759C416.34 652.659 446.098 621.924 435.594 588.487C432.504 578.658 426.141 570.394 421.835 561.092C414.865 546.042 413.501 528.852 408.805 512.847C397.423 474.061 367.606 444.996 339.007 417.883C314.981 395.104 285.496 370.672 253.986 378.04C232.802 382.993 216.587 401.538 195.886 408.4C175.632 415.116 153.763 409.902 133.128 404.662C86.7617 392.887 38.1637 379.883 3.3125 345.474" stroke="black" stroke-linecap="round" stroke-linejoin="round"/>
<path d="M-2.16211 270.359C11.6459 278.451 25.4546 286.543 39.2639 294.634C42.9075 296.769 47.6062 298.864 50.9518 296.238C54.1535 293.725 53.8316 288.601 52.8383 284.522C47.6901 263.377 32.7615 245.152 13.6979 236.746" stroke="black" stroke-linecap="round" stroke-linejoin="round"/>
<path d="M4.8014 305.858C23.526 302.594 44.5085 325.676 59.0047 312.727C63.8787 308.375 65.592 301.273 66.41 294.584C72.2192 247.245 42.6753 197.738 -0.238281 182.89" stroke="black" stroke-linecap="round" stroke-linejoin="round"/>
<path d="M16.2658 316.392C25.8014 324.813 35.6094 333.404 47.3296 337.764C59.0498 342.124 73.2756 341.427 82.4931 332.62C89.3394 326.079 92.4259 316.151 93.4982 306.462C97.7074 268.435 75.4488 233.119 52.1674 203.794C28.8859 174.468 2.47234 144.904 -4.33105 107.3" stroke="black" stroke-linecap="round" stroke-linejoin="round"/>
<path d="M11.9073 340.118L101.023 358.188C107.896 359.583 115.585 360.817 121.409 356.718C125.695 353.698 127.988 348.39 129.51 343.187C142.247 299.696 115.564 255.323 90.2301 218.505C81.4687 205.772 72.6588 192.978 62.0709 181.907C49.8926 169.174 35.4925 158.857 24.2494 145.202C13.0063 131.547 5.0296 112.983 9.32457 95.4518" stroke="black" stroke-linecap="round" stroke-linejoin="round"/>
<path d="M21.5783 80.5129C33.3938 108.535 56.7133 128.9 74.6818 152.998C111.448 202.297 125.353 266.631 158.486 318.733C164.787 328.639 171.925 338.435 174.444 350.077C176.963 361.718 173.194 375.97 162.819 380.688C156.882 383.389 150.102 382.498 143.709 381.495C84.6869 372.195 26.7268 357.091 -29.3281 336.401" stroke="black" stroke-linecap="round" stroke-linejoin="round"/>
<path d="M6.24501 352.046C36.2098 365.851 66.4604 379.755 98.5251 386.474C130.59 393.193 165.043 392.243 194.473 377.204C205.65 371.489 217.364 359.905 213.556 347.413C211.088 339.311 203.121 334.921 196.562 329.982C177.981 315.993 167.607 293.13 157.993 271.259C144.963 241.617 131.934 211.975 118.906 182.334C113.271 169.517 107.579 156.597 99.5869 145.268C90.9474 133.017 79.8738 122.979 69.3592 112.49C38.5158 81.628 12.1659 46.58 -8.91602 8.37625" stroke="black" stroke-linecap="round" stroke-linejoin="round"/>
<path d="M4.35938 3.49373C14.8616 13.3207 26 22.9476 39.2344 27.8539C52.4689 32.7602 68.3355 32.1402 79.2044 22.7714C85.9878 16.9202 90.1237 8.4191 95.3729 1.01342C111.904 -22.3142 138.793 -34.1071 163.91 -46.1305C253.064 -88.8073 339.911 -152.62 377.538 -248.142" stroke="black" stroke-linecap="round" stroke-linejoin="round"/>
<path d="M6.33301 -24.1192C12.9278 -14.5047 19.7608 -4.65012 29.284 1.66019C38.8072 7.9705 51.7683 9.97075 61.1068 3.36802C65.5313 0.240016 68.7111 -4.44249 72.0471 -8.82399C95.6742 -39.8564 130.278 -58.8417 163.841 -76.9515L246.848 -121.742C272.857 -135.775 299.538 -150.355 318.724 -173.625C342.177 -202.072 352.313 -241.045 377.253 -268.039" stroke="black" stroke-linecap="round" stroke-linejoin="round"/>
<path d="M1130.03 -224.752C1082.71 -118.46 968.343 -50.193 857.812 -62.2554C828.176 -65.4891 798.587 -73.9102 769.006 -70.1488C739.426 -66.3873 708.671 -45.6886 705.052 -14.4276C703.463 -0.711559 707.136 14.016 701.659 26.5652C696.847 37.5942 687.069 43.1987 676.11 47.7345C656.52 55.846 646.934 76.48 653.494 95.6909C655.812 102.44 656.983 109.529 656.958 116.665C656.863 132.698 650.839 148.383 652.011 164.367C654.131 193.323 679.416 214.926 705.596 223.724C731.776 232.522 759.878 232.162 786.803 237.916C845.695 250.507 897.86 294.231 922.89 351.979C937.641 386.011 945.139 426.772 973.82 448.725C999.247 468.189 1033.38 466.505 1064.1 473.321C1131.73 488.325 1187.08 552.074 1195.44 624.594C1196.96 637.853 1197.07 651.316 1199.61 664.401C1204.26 688.291 1216.69 709.512 1227.61 730.997C1245 765.248 1258.92 801.15 1269.17 838.168C1276.9 866.024 1282.58 895.466 1277.41 923.974C1272.36 951.855 1258.44 984.849 1277.11 1005.25" stroke="black" stroke-linecap="round" stroke-linejoin="round"/>
<path d="M1072.95 -221.419C1070.91 -190.177 1047.66 -164.944 1022.53 -148.353C997.41 -131.761 969.014 -120.646 945.838 -101.135C934.161 -91.2981 923.548 -79.187 909.435 -74.0302C869.938 -59.5979 832.173 -105.87 790.387 -105.44C768.864 -105.218 749.415 -92.5658 731.505 -79.9414C707.578 -63.0745 682.46 -43.0987 675.092 -13.7084C672.437 -3.11468 672.101 8.63916 665.887 17.4098C651.929 37.1103 614.923 33.2479 610.297 57.3738C607.63 71.2727 618.934 83.2142 624.967 95.8824C638.834 124.993 624.682 160.92 632.724 192.386C643.382 234.099 688.282 254.138 728.65 260.892C769.018 267.647 812.835 268.015 845.995 293.269C889.095 326.091 899.044 388.791 929.092 435.096C956.06 476.657 1000.84 504.736 1048.27 509.823C1061.02 511.189 1074.26 511.061 1086.01 516.463C1098.53 522.208 1107.9 533.575 1115.81 545.329C1164.06 617.036 1171.4 709.853 1199.92 792.526C1225.23 865.857 1268.55 942.348 1245.2 1016.4" stroke="black" stroke-linecap="round" stroke-linejoin="round"/>
<path d="M999.361 -211.826C980.57 -176.856 953.379 -147.109 920.236 -125.262C898.842 -111.237 871.113 -109.937 847.919 -121.13C812.075 -138.426 770.155 -141.867 736.1 -122.07C686.087 -92.9973 664.1 -22.5791 610.508 -1.82696C592.7 5.06628 569.447 8.75627 563.749 27.8758C562.207 33.1083 562.274 38.6835 563.939 43.8778C568.149 57.7157 563.773 72.9233 551.504 81.4796C551.034 81.8066 550.57 82.1508 550.114 82.5121C539.101 91.2008 538.103 113.384 551.181 117.845C558.187 120.233 566.108 116.65 573.078 119.157C585.78 123.729 585.226 143.9 577.393 155.418C569.56 166.937 557.246 175.083 551.934 188.11C542.806 210.501 558.954 236.224 578.789 248.667C598.624 261.111 622.166 265.68 642.04 278.053C655.974 286.728 668.181 299.254 683.799 303.687C692.195 306.068 701.021 305.923 709.714 305.827C755.212 305.329 807.117 309.909 835.011 347.913C854.943 375.073 856.914 412.47 872.555 442.605C896.829 489.373 948.423 510.408 994.68 531.707C1040.94 553.006 1090.64 584.571 1100.72 636.842C1104.25 655.161 1100.41 677.63 1084.69 686.182C1079.46 689.023 1073.45 690.011 1068.36 693.105C1059.14 698.7 1054.53 710.31 1053.58 721.5C1050.94 752.423 1071.12 780.314 1093.28 800.686C1115.44 821.058 1141.26 838.225 1156.88 864.519C1181.06 905.231 1175.26 957.452 1168.6 1005.01" stroke="black" stroke-linecap="round" stroke-linejoin="round"/>
<path d="M393.356 -237.996C378.785 -171.353 331.312 -117.758 278.381 -78.425C225.45 -39.0925 165.877 -10.8499 111.606 26.3833C102.474 32.6479 92.9101 39.9688 89.6226 50.9387C83.163 72.4919 103.374 91.3323 118.517 107.297C165.176 156.491 178.151 232.138 221.331 284.763C258.888 330.53 315.197 353.891 370.777 368.662C395.061 375.115 420.089 380.283 445.015 377.793C478.746 374.422 512.598 357.386 545.421 349.548C570.563 343.547 575.446 311.575 553.214 298.97C541.202 292.159 528.639 286.112 516.563 280.063C481.025 262.263 442.991 236.205 436.804 195.145C435.723 187.96 435.903 179.969 440.137 174.234C445.119 167.488 454.428 165.572 459.273 158.717C466.655 148.275 459.654 133.161 450.602 124.31C441.549 115.458 429.936 108.194 425.88 95.8843C421.843 83.6256 429.261 70.3306 439.776 64.2613C449.204 58.8197 454.494 48.6813 452.579 38.4114C448.732 17.7622 450.692 -3.24806 467.682 -10.9795C476.477 -14.98 486.528 -13.3827 496.061 -14.3599C560.84 -20.9912 568.09 -129.553 627.492 -157.669C667.702 -176.701 714.022 -150.896 757.976 -154.05C786.06 -156.063 814.059 -171.659 827.551 -197.776C841.043 -223.894 836.868 -260.246 814.953 -278.923" stroke="black" stroke-linecap="round" stroke-linejoin="round"/>
<path d="M408.737 -225.72C422.563 -177.154 389.916 -127.96 355.073 -93.0954C300.535 -38.5229 235.397 4.15957 164.902 31.5144C154.617 35.5054 143.346 39.9221 137.935 49.9929C130.333 64.1366 138.381 82.4893 150 93.1554C161.619 103.822 176.42 110.015 188.079 120.635C219.751 149.472 219.785 200.721 238.508 240.228C260.974 287.634 310.313 315.564 359.86 323.762C388.811 328.552 418.094 327.625 447.308 324.32C476.878 320.978 484.535 283.879 458.416 270.377C450.147 266.102 441.767 262.008 433.869 257.574C405.938 241.892 378.942 207.834 393.53 178.169C397.253 170.595 403.378 164.409 406.166 156.401C417.524 123.778 368.93 86.7737 388.662 58.9607C394.583 50.612 405.007 47.1706 411.642 39.4478C430.352 17.6708 410.499 -24.6336 431.999 -43.3054C446.94 -56.2794 469.285 -46.5239 488.444 -49.288C539.738 -56.6918 541.824 -140.505 584.925 -170.827C616.008 -192.694 658.463 -180.015 693.902 -192.436C735.718 -207.091 760.977 -260.912 746.722 -304.983" stroke="black" stroke-linecap="round" stroke-linejoin="round"/>
<path d="M433.924 -229.498C442.558 -189.017 424.831 -147.456 402.906 -113.036C361.237 -47.6307 302.233 5.15109 234.673 38.4743C213.466 48.9356 207.953 75.0284 222.897 92.6639C231.874 103.25 238.967 115.3 243.866 128.287C254.595 156.843 254.688 188.835 264.949 217.584C284.793 273.182 345.672 308.548 400.702 296.451C409.003 294.625 419.122 288.286 416.686 279.697C415.47 275.41 411.439 272.83 407.706 270.717C382.129 256.24 351.978 239.992 346.724 209.823C342.357 184.744 357.718 160.182 357.231 134.683C356.564 99.6857 327.471 61.1695 348.393 34.0385C355.851 24.3687 368.307 19.491 374.073 8.60676C379.954 -2.49557 377.109 -16.3392 379.391 -28.8331C386.684 -68.7429 437.267 -76.8734 465.403 -104.581C485.417 -124.291 493.507 -154.667 492.981 -183.581C492.454 -212.495 484.315 -240.572 476.252 -268.205" stroke="black" stroke-linecap="round" stroke-linejoin="round"/>
<path d="M348.688 202.27C344.647 158.887 319.998 115.402 333.632 74.2635C336.617 65.2519 341.242 54.7773 336.098 46.9268C332.67 41.6881 325.136 40.0945 320.061 43.5311C314.986 46.9678 313.204 54.8659 316.267 60.3523C314.362 84.7896 295.114 71.2022 299.22 88.1653C303.327 105.128 315.586 118.618 321.304 135.055C329.779 159.439 323.149 188.077 334.021 211.38C335.284 214.088 337.05 216.912 339.822 217.644C346.321 219.368 349.349 209.318 348.688 202.27Z" stroke="black" stroke-linecap="round" stroke-linejoin="round"/>
<path d="M530.332 818.524C528.656 759.244 564.147 706.178 574.781 647.945C586.83 581.963 567.319 508.411 598.37 449.777C608.148 431.316 624.464 414.705 644.431 413.263C665.928 411.71 684.782 427.734 699.666 444.207C708.223 453.674 716.516 463.998 720.272 476.476C729.777 508.059 707.629 540.162 684.274 562.274C660.919 584.385 633.162 606.019 626.509 638.409C621.689 661.877 629.168 687.153 622.133 709.987C615.064 732.935 595.129 748.198 580.737 766.931C566.346 785.664 558.358 815.901 575.158 832.234" stroke="black" stroke-linecap="round" stroke-linejoin="round"/>
<path d="M608.814 670.705C599.613 643.518 583.622 670.616 579.683 688.09C575.743 705.565 570.19 704.957 571.365 715.999C572.934 730.738 592.917 735.069 601.273 722.525C611.18 707.652 614.805 687.863 608.814 670.705Z" stroke="black" stroke-linecap="round" stroke-linejoin="round"/>
<path d="M661.119 484.254C658.522 480.825 654.788 476.945 650.263 477.689C647.918 478.07 646.117 479.661 644.549 481.227C631.182 494.577 624.177 511.187 620.227 528.065C617.263 540.727 618.15 553.808 616.246 566.598C615.421 572.142 611.354 577.266 618.811 579.599C624.62 581.417 631.647 577.162 634.38 573.789C637.645 569.756 639.378 564.882 642.475 560.746C650.656 549.824 667.25 545.333 674.473 533.886C684.226 518.411 672.497 499.24 661.119 484.254Z" stroke="black" stroke-linecap="round" stroke-linejoin="round"/>
<path d="M665.2 468.279C661.704 463.675 656.681 458.45 650.593 459.45C647.439 459.969 645.015 462.1 642.906 464.213C624.929 482.168 615.507 504.504 610.193 527.207C606.206 544.24 607.398 561.834 604.838 579.035C603.729 586.49 598.259 593.381 608.287 596.522C616.102 598.966 625.551 593.244 629.228 588.705C633.62 583.275 635.95 576.725 640.117 571.163C651.122 556.472 673.441 550.431 683.151 535.03C696.268 514.222 680.498 488.437 665.2 468.279Z" stroke="black" stroke-linecap="round" stroke-linejoin="round"/>
<path d="M670.245 448.452C665.637 442.379 659.015 435.491 650.985 436.811C646.828 437.494 643.634 440.306 640.852 443.087C617.151 466.757 604.728 496.211 597.724 526.139C592.469 548.593 594.037 571.787 590.665 594.469C589.201 604.296 581.99 613.384 595.213 617.52C605.517 620.744 617.974 613.2 622.819 607.216C628.609 600.064 631.682 591.423 637.177 584.09C651.684 564.72 681.113 556.753 693.914 536.453C711.209 509.022 690.417 475.027 670.245 448.452Z" stroke="black" stroke-linecap="round" stroke-linejoin="round"/>
<path d="M514.872 844.317C508.549 801.359 502.459 755.938 517.714 715.559C525.142 695.898 537.31 678.523 544.517 658.768C558.319 620.936 552.668 578.82 550.934 538.313C549.2 497.806 553.295 452.952 580.795 424.688C618.569 385.866 683.8 397.713 725.358 431.941C746.581 449.418 765.147 474.509 764.582 502.944C763.204 572.487 658.693 595.701 650.099 664.665C648.513 677.394 650.592 690.3 650.29 703.135C648.749 767.951 588.457 818.058 585.049 882.798" stroke="black" stroke-linecap="round" stroke-linejoin="round"/>
<path d="M513.602 879.183C513.663 824.341 463.061 776.92 472.422 722.979C476.845 697.492 493.978 676.965 506.353 654.601C525.883 619.31 533.992 577.103 529.036 536.554C526.375 514.789 520.068 493.04 522.893 471.295C527.559 435.373 557.112 407.318 589.765 396.23C622.419 385.142 657.753 388.039 691.709 393.135C727.504 398.508 767.514 409.533 784.792 443.11C800.188 473.029 791.274 511.263 773.121 539.401C754.968 567.54 728.901 588.664 706.091 612.712C683.28 636.761 662.665 666.277 660.529 700.261C659.272 720.222 664.536 740.026 664.799 760.029C665.328 800.123 646.048 837.151 627.323 872.017" stroke="black" stroke-linecap="round" stroke-linejoin="round"/>
<path d="M481.183 825.47C447.797 775.798 445.166 705.116 474.756 652.825C486.785 631.574 503.782 612.725 509.586 588.73C518.361 552.44 499.396 515.87 482.127 483.163C474.559 468.83 466.978 452.134 472.134 436.65C477.432 420.744 493.907 412.824 508.825 406.859C541.909 393.633 575.463 381.546 609.845 372.773C651.676 362.099 696.298 356.518 737.282 370.392C778.267 384.266 814.467 421.65 817.359 467.045C820.002 508.529 795.613 546.406 768.758 576.78C741.902 607.155 710.782 634.936 694.208 672.64C656.647 758.088 705.474 864.056 671.775 951.284" stroke="black" stroke-linecap="round" stroke-linejoin="round"/>
<path d="M730.836 902.202C732.439 837.849 734.041 773.496 735.643 709.143C736.024 693.885 736.612 677.839 744.105 664.792C752.704 649.82 768.593 641.77 782.578 632.382C813.824 611.406 838.513 579.922 852.86 543.884C858.03 530.893 879.022 537.461 874.668 550.716C873.897 553.069 872.956 555.364 871.853 557.581C863.116 575.044 847.604 587.325 834.181 601.07C764.902 672.031 750.662 786.578 771.042 886.262" stroke="black" stroke-linecap="round" stroke-linejoin="round"/>
<path d="M813.118 894.566C817.072 836.188 797.384 776.998 808.451 719.651C813.577 692.933 825.359 667.941 842.706 646.987C857.029 629.842 874.773 616.137 888.728 598.658C902.684 581.18 912.84 557.92 907.719 535.698C906.736 531.434 905.202 527.051 906.146 522.776C907.091 518.5 911.992 514.918 915.416 517.401C917.054 518.586 917.797 520.711 918.382 522.715C928.395 556.829 921.114 596.047 899.645 623.628C889.421 636.764 876.413 647.178 865.641 659.815C839.407 690.588 828.009 732.957 826.568 774.356C825.127 815.756 832.772 856.834 840.377 897.473" stroke="black" stroke-linecap="round" stroke-linejoin="round"/>
<path d="M868.426 806.127C859.074 761.53 866.768 713.205 889.412 674.301C892.673 668.7 896.684 662.924 902.642 661.033C911.44 658.241 920.196 664.938 927.098 671.345C960.074 701.962 992.245 740.554 993.269 786.943C993.788 810.429 988.584 839.961 1007.5 852.297" stroke="black" stroke-linecap="round" stroke-linejoin="round"/>
<path d="M1051.71 848.475C1046.79 788.05 1013.77 734.481 978.176 686.919C967.503 672.66 955.91 656.888 956.584 638.722C957.13 623.985 965.694 611.188 972.125 598.101C974.661 593.035 976.621 587.7 977.969 582.196C980.685 570.594 994.254 564.47 1005.66 569.509L1025.33 578.196C1037.23 583.449 1049.45 588.925 1058.59 598.541C1067.72 608.158 1073.13 623.049 1068.4 635.729C1064.18 647.048 1053.42 653.725 1044.75 661.713C1024.4 680.438 1014.03 713.105 1025.86 738.738C1029.84 747.343 1035.92 754.612 1041.3 762.312C1068.68 801.486 1077.86 854.221 1065.47 901.137C1064.21 897.607 1062.95 894.079 1061.69 890.552" stroke="black" stroke-linecap="round" stroke-linejoin="round"/>
<path d="M1000.18 604.238C993.853 608.778 993.864 618.459 994.562 626.51C995.419 636.512 983.616 659.302 997.146 656.501C1005.36 649 1019.33 632.859 1020.44 621.442C1021.55 610.025 1009.16 597.794 1000.18 604.238Z" stroke="black" stroke-linecap="round" stroke-linejoin="round"/>
<path d="M995.329 587.496C984.803 595.045 984.823 611.151 985.976 624.542C987.405 641.171 963.702 664.768 990.274 674.428C1008.99 673.325 1027.18 635.103 1029.02 616.112C1030.86 597.121 1010.27 576.778 995.329 587.496Z" stroke="black" stroke-linecap="round" stroke-linejoin="round"/>
<path d="M1002.85 617.444C1000 619.484 1000.01 623.838 1000.32 627.459C1000.77 632.65 1008.3 634.056 1010.63 629.335C1011.31 628.039 1011.76 626.632 1011.95 625.18C1012.45 620.046 1006.88 614.546 1002.85 617.444Z" stroke="black" stroke-linecap="round" stroke-linejoin="round"/>
<path d="M645.631 501.472L633.234 530.395C629.234 539.729 642.642 546.705 648.939 538.575C656.857 528.352 661.128 514.286 658.945 502.824C657.709 496.319 648.259 495.345 645.631 501.472Z" stroke="black" stroke-linecap="round" stroke-linejoin="round"/>
<path d="M1150.1 -234.678C1138.78 -216.918 1143.08 -193.301 1140.27 -172.09C1133.05 -117.512 1079.94 -84.1619 1030.37 -67.1313C988.021 -52.568 943.869 -43.8988 899.157 -41.3671C865.876 -39.4992 827.209 -38.461 807.232 -10.2585C800.947 -1.38211 797.391 9.26778 792.607 19.1347C781.136 42.5912 762.333 61.6685 739.047 73.4758C711.458 87.4213 700.05 119.608 712.895 146.532C714.058 148.97 715.272 151.38 716.538 153.762C721.681 163.449 730.353 170.788 740.553 175.765C751.102 180.908 758.457 201.482 770.392 209.798C778.216 215.252 788.258 214.95 797.629 215.228C875.96 217.576 949.16 280.393 967.441 360.96C971.989 381 974.685 404.041 990.366 416.286C1000.82 424.449 1014.55 425.586 1027.46 427.193C1076.74 433.322 1126.66 451.894 1160.41 490.357C1188.92 522.867 1203.23 566.154 1216.8 608.109C1241 682.941 1265.2 757.773 1289.4 832.606" stroke="black" stroke-linecap="round" stroke-linejoin="round"/>
<path d="M1166.69 -235.898C1152.79 -211.414 1147.61 -182.931 1152.02 -155.119C1154.62 -138.927 1160.46 -122.98 1159.15 -106.61C1156.42 -72.4272 1123.58 -49.371 1091.84 -42.2577C1060.1 -35.1444 1026.77 -38.5544 995.281 -30.2933C972.378 -24.285 951.237 -12.3035 928.532 -5.50835C914.342 -1.25925 898.764 0.665754 884.421 -2.07935C870.094 -4.81969 857.63 7.23894 861.459 20.5492C865.682 35.2177 871.497 50.1662 866.272 63.7784C856.989 87.9595 822.375 86.7336 806.172 106.421C796.041 118.729 795.697 138.797 805.411 151.483C809.837 157.265 815.866 161.399 821.926 165.176C838.782 175.677 856.866 184.307 871.859 197.588C892.229 215.632 906.633 243.258 933.711 265.378" stroke="black" stroke-linecap="round" stroke-linejoin="round"/>
<path d="M1312.14 778.708C1288.75 740.52 1264.58 699.832 1263.08 654.364C1262.61 639.908 1264.48 625.456 1264.12 610.996C1262.71 555.013 1227.62 505.19 1184.86 472.137C1142.1 439.084 1091.7 419.392 1043.48 396.211C1036.96 393.078 1030.34 389.783 1025.16 384.551C1015.73 375.026 1012.52 360.738 1008.98 347.462C997.681 304.923 978.563 264.86 952.606 229.316C933.655 203.491 910.445 178.662 896.696 150.175C889.706 135.697 897.268 119.028 912.754 112.714C925.437 107.542 935.801 95.0062 935.068 80.431C934.547 70.0764 929.616 60.5352 928.003 50.3092C926.39 40.0831 929.923 27.2701 939.444 24.7821C943.876 23.623 948.491 25.0231 953.025 25.6394C986.875 30.2609 1046.44 15.6382 1062.01 -16.4773C1062.01 -16.4773 1067.87 -37.2656 1037.47 -18.1451C1007.07 0.975366 965.182 8.62014 936.807 7.98577C919.022 7.58572 911.057 19.7072 907.59 28.8112C905.615 34.1147 905.815 39.9838 908.145 45.1409C912.778 55.6765 920.388 76.221 914.513 86.3841C906.406 100.408 842.904 119.531 872.627 151.397C902.35 183.263 955.721 262.301 955.721 262.301C955.721 262.301 957.744 279.31 934.103 255.292" stroke="black" stroke-linecap="round" stroke-linejoin="round"/>
<path d="M1218.65 -229.737C1196.86 -239.575 1172.6 -215.198 1170.5 -190.249C1168.39 -165.301 1180.4 -141.807 1190.46 -119.125C1200.52 -96.4435 1208.97 -70.0412 1199.91 -46.8964C1188.04 -16.5888 1152.62 -6.47991 1121.76 -2.99948C1090.91 0.480956 1056.29 2.9603 1035.7 27.4976C1024.53 40.8022 1019.52 58.6006 1010.11 73.3415C988.862 106.632 943.958 129.083 946.829 169.13C949.947 212.698 1006.25 226.538 1027.6 263.951C1043.5 291.809 1037.43 328.522 1050.88 357.785C1078.24 417.301 1161.36 410.538 1212.87 448.122C1269.92 489.74 1276.02 573.931 1290.36 645.621C1303.2 709.856 1326.69 771.079 1350.07 831.907" stroke="black" stroke-linecap="round" stroke-linejoin="round"/>
<path d="M1357.25 794.58C1325.01 670.672 1292.76 546.764 1260.52 422.856C1256.9 408.95 1252.73 394.128 1242.19 384.97C1231.03 375.264 1215.51 374.279 1201.45 370.74C1148.84 357.505 1113.01 306.098 1089.73 254.502C1075.1 222.093 1066.62 176.282 1094.73 156.136C1108.64 146.166 1131.78 140.404 1129.84 122.753C1128.32 108.902 1110.34 102.161 1108.87 88.3024C1107.17 72.2518 1127.3 64.9881 1142.57 64.3947C1157.84 63.8013 1177.9 59.876 1179.55 43.8207C1180.24 36.998 1176.88 30.3838 1176.84 23.521C1176.68 -1.85833 1213.47 -3.57758 1230.28 -21.6932C1253.2 -46.3867 1230.7 -86.0517 1223.11 -119.705C1211.16 -172.727 1241.02 -225.198 1269.55 -270.598" stroke="black" stroke-linecap="round" stroke-linejoin="round"/>
<path d="M1389.84 795.749C1326.05 695.275 1366.31 552.777 1313.15 445.61C1273.9 366.486 1185.52 309.021 1185.57 219.677C1185.59 198.83 1193.97 174.609 1213.1 169.545C1236.66 163.304 1264.29 189.403 1283.53 173.719C1309.07 152.897 1268.68 109.624 1279.03 77.3334C1284.45 60.4437 1302.88 51.1292 1308.25 34.2261C1314.86 13.414 1299.3 -7.11235 1286.49 -24.3831C1266.7 -51.0426 1251.09 -89.1778 1268.71 -117.481C1278.95 -133.935 1297.85 -142.071 1309.76 -157.222C1338.06 -193.231 1315.88 -247.071 1293.1 -287.215" stroke="black" stroke-linecap="round" stroke-linejoin="round"/>
<path d="M1415.46 794.555C1367.99 714.083 1368.65 612.904 1373.76 518.217C1375.63 483.468 1377.61 447.017 1363.67 415.489C1351.41 387.797 1328.26 367.257 1313.06 341.248C1297.86 315.239 1293.09 276.859 1315.34 257.333C1339.42 236.198 1380.92 249.4 1402.47 225.395C1424.37 200.99 1406.42 159.137 1380.47 139.67C1370.7 132.336 1359.76 126.312 1352.08 116.596C1344.39 106.881 1340.93 91.7791 1348.13 81.6597C1360.3 64.5671 1388.21 76.1485 1404.76 63.8479C1416.53 55.1059 1418.3 36.5579 1412.76 22.5285C1407.23 8.49914 1396.21 -2.12886 1385.68 -12.4844C1351.38 -46.2429 1316.28 -94.2299 1332.92 -140.546C1338.88 -157.12 1350.79 -170.385 1359.8 -185.338C1392.03 -238.817 1381.6 -316.446 1336.56 -358.322" stroke="black" stroke-linecap="round" stroke-linejoin="round"/>
<path d="M1434.5 -269.592C1413.41 -241.552 1391.95 -212.84 1380.56 -179.098C1369.16 -145.355 1369.45 -105.066 1389.81 -76.4181C1409.97 -48.0422 1444.91 -36.558 1470.26 -13.2874C1495.6 9.98307 1505.87 60.758 1475.69 76.2827C1469.22 79.606 1461.79 80.6642 1455.69 84.6904C1437.24 96.8901 1441.68 127.115 1453.28 146.587C1464.88 166.059 1481.89 184.198 1482.43 207.204C1483.88 269.186 1374.85 279.022 1373.01 340.988C1372.55 356.568 1379.72 371.081 1385.73 385.312C1394.65 406.43 1401.34 428.421 1405.69 450.927C1429.73 574.951 1384.58 715.446 1446.2 824" stroke="black" stroke-linecap="round" stroke-linejoin="round"/>
<path d="M1458.06 780.808C1463.86 732.859 1461.31 684.266 1450.51 637.191C1446.02 617.705 1440.5 596.126 1442.31 576.813C1443.39 565.227 1460.82 563.583 1464.23 574.759C1468.53 588.856 1470.5 604.036 1472.32 618.802C1478.69 670.364 1485.06 721.924 1491.42 773.482" stroke="black" stroke-linecap="round" stroke-linejoin="round"/>
<path d="M1530.85 790.792C1506.8 752.236 1513.36 701.383 1501.9 656.812C1498.56 643.802 1493.64 631.255 1490.94 618.08C1482.79 578.404 1494.21 532.545 1471.76 499.608C1468.59 494.952 1463.44 490.334 1458.31 492.219C1456.35 493.112 1454.64 494.477 1453.33 496.193C1435.59 516.508 1430.5 545.968 1431.22 573.608C1431.94 601.247 1437.66 628.551 1438.19 656.195C1438.59 677.699 1435.87 699.45 1439.65 720.584C1447.02 761.846 1478.37 796.63 1478.86 838.619" stroke="black" stroke-linecap="round" stroke-linejoin="round"/>
<path d="M1611.82 831.434C1584.62 715.733 1557.43 600.032 1530.23 484.331C1527.26 471.676 1523.19 457.506 1512.14 451.687C1505.32 448.09 1497.28 448.585 1489.83 446.849C1461.43 440.231 1450.4 394.803 1472.28 374.548C1478.95 368.377 1488.02 363.929 1490.84 355.052C1495.73 339.638 1478.23 325.955 1477.21 309.734C1475.93 289.534 1498.39 278.813 1512.72 265.391C1534.52 244.979 1538.44 214.528 1534.55 182.98C1531.91 161.573 1565.15 156.101 1569.94 177.17C1570 177.443 1570.06 177.714 1570.12 177.988C1576.07 205.246 1572.82 233.701 1574.45 261.617C1578.19 325.704 1609.25 387.457 1657.41 426.573C1699.02 460.369 1756.53 483.576 1770.24 537.13C1777.23 564.456 1770.44 593.272 1766.3 621.243C1754.59 700.478 1765.03 783.226 1795.98 856.448" stroke="black" stroke-linecap="round" stroke-linejoin="round"/>
<path d="M1637.72 826.79C1624.68 753.436 1611.65 680.083 1598.61 606.731C1588.56 550.152 1576.26 489.23 1535.54 451.016C1525.82 441.903 1514.09 433.379 1510.76 420.108C1509.03 413.204 1509.87 405.905 1510.72 398.819C1515.21 361.632 1519.82 323.953 1533.22 289.244L1533.36 288.864C1535.51 283.322 1544.28 284.848 1544.23 290.75C1543.74 340.619 1564.5 390.852 1600.85 422.883C1634.14 452.204 1679.56 468.042 1702.27 507.046C1727.68 550.677 1715.55 606.412 1709.91 657.304C1701.41 734.432 1709.98 812.485 1735.01 885.932" stroke="black" stroke-linecap="round" stroke-linejoin="round"/>
<path d="M1668.45 824.678C1668.35 771.864 1660.08 719.383 1643.94 669.097C1638.24 651.391 1631.58 634.045 1625.78 616.371C1614.42 581.671 1606.46 545.952 1601.99 509.714C1599.57 490.107 1626.11 480.234 1638.59 496.081C1653.85 515.466 1663.9 540.441 1668.71 565.369C1676.92 607.972 1673.07 651.998 1674.78 695.441C1677 751.715 1688.61 807.163 1703.57 861.222" stroke="black" stroke-linecap="round" stroke-linejoin="round"/>
<path d="M1502.29 -227.903C1447.35 -191.201 1443.65 -93.8155 1495.64 -52.5751C1517.52 -35.211 1548.61 -23.7144 1554.43 4.55391C1559.74 30.3667 1539.74 55.7422 1542.77 81.9626C1545.43 104.979 1564.51 121.16 1578.09 139.359C1602.63 172.231 1610.55 215.336 1615.91 256.829C1621.26 298.322 1625.15 341.221 1643.63 378.265C1662.11 415.31 1699.71 445.423 1738.9 439.302C1746.62 438.098 1754.56 435.252 1759.59 428.95C1763.75 423.749 1765.41 416.845 1766.41 410.121C1775.35 349.803 1740.68 293.01 1708.64 242.216C1676.6 191.422 1644.23 132.048 1658.16 72.7948C1662.68 53.5438 1671.88 35.954 1679.08 17.6375C1715.55 -75.117 1696.34 -189.478 1631.86 -263.265" stroke="black" stroke-linecap="round" stroke-linejoin="round"/>
<path d="M1521 -221.829C1495.01 -172.162 1509.16 -103.201 1552.29 -69.3953C1562.7 -61.2305 1574.71 -54.7202 1582.37 -43.6598C1601.47 -16.0716 1584.69 22.1427 1584.56 56.3298C1584.48 79.0689 1592.17 100.94 1599.75 122.218C1608.36 146.357 1616.97 170.496 1625.57 194.637C1641.46 239.197 1657.35 283.759 1673.24 328.322C1677.7 340.841 1697.43 336.781 1696.02 323.641C1693.47 299.924 1684.16 276.016 1672.95 255.018C1653.69 218.96 1628.55 185.042 1620.67 144.478C1608.93 83.9666 1638.45 24.1239 1649.85 -36.4369C1666.23 -123.47 1643.53 -217.285 1594.2 -292.799" stroke="black" stroke-linecap="round" stroke-linejoin="round"/>
<path d="M1684.02 -257.388C1694.89 -202.81 1705.76 -148.232 1716.63 -93.6535C1725.83 -47.464 1735.08 -0.236191 1729.52 46.6001C1722.84 102.945 1695.71 163.365 1721.81 212.99C1735 238.066 1759.41 254.096 1776.45 276.427C1800.88 308.445 1808.55 353.899 1796.11 392.876C1790.25 411.232 1780.31 428.052 1775.9 446.856C1772.13 462.96 1772.58 479.79 1773.05 496.374C1774.91 561.288 1776.77 626.202 1778.64 691.116C1781.2 780.493 1785.5 875.654 1834.34 948.661" stroke="black" stroke-linecap="round" stroke-linejoin="round"/>
<path d="M1248.86 22.5637C1256.79 8.09813 1230.57 5.05775 1224.54 8.09813C1224.45 8.14194 1200.61 15.6591 1196.93 25.1545C1193.72 33.4537 1203.22 41.0194 1205.66 49.5499C1209.35 62.4916 1196.08 74.2416 1183 79.4584C1169.91 84.6753 1154.67 87.5547 1145.8 98.0217C1144.1 99.8567 1142.93 102.117 1142.4 104.563C1141.17 112.128 1149.25 117.803 1152.99 124.595C1158.43 134.442 1154.3 146.707 1147.68 155.887C1141.06 165.067 1132.09 172.697 1126.46 182.448C1120.47 192.826 1119.98 206.578 1129.42 214.954C1143.65 227.581 1154.96 214.962 1155.81 210.12C1157.84 198.475 1158.28 182.403 1160.04 170.715C1163.46 147.855 1176.69 136.044 1200.75 140.288C1208.67 141.681 1226.98 146.849 1232.47 141.284C1246.74 126.819 1241.37 113.185 1238.28 103.873C1224.54 62.4706 1242.04 34.9986 1248.86 22.5637Z" stroke="black" stroke-linecap="round" stroke-linejoin="round"/>
<path d="M1082.19 57.2833C1095.29 48.9213 1107.54 46.6934 1120.01 42.9329C1133.68 38.8086 1144.12 28.2883 1147.6 15.1476C1149.12 9.43259 1144.17 3.93096 1137.98 4.58532C1115.14 6.99229 1093.77 20.272 1076.17 33.3841C1066.77 40.3205 1057.96 48.0042 1049.8 56.3603C1036.35 70.2668 1052.64 87.5242 1042.26 100.411C1038.68 104.839 1033.58 107.889 1028.84 111.199C1009.32 124.819 1002.43 138.855 995.133 160.698C993.114 166.745 991.675 173.385 994.011 179.328C996.033 184.477 1000.58 188.315 1004.95 191.932L1016.44 201.424C1022.03 206.04 1030.58 200.893 1028.44 194.185C1025.62 185.362 1023.9 176.707 1027.81 168.501C1035.64 152.049 1061.84 148.537 1068.33 131.572C1075.02 114.095 1055.97 94.8356 1062.19 77.2039C1065.31 68.3561 1074.01 62.5087 1082.19 57.2833Z" stroke="black" stroke-linecap="round" stroke-linejoin="round"/>
<path d="M1132.83 268.987C1128.96 266.987 1122.92 266.151 1121.19 269.979C1120.41 271.71 1120.98 273.694 1121.63 275.475C1127.08 290.06 1137.18 302.447 1150.36 310.731L1150.26 310.589C1151.16 311.615 1152.3 312.386 1153.59 312.825C1154.88 313.265 1156.26 313.356 1157.59 313.09C1159.38 295.554 1149.21 277.44 1132.83 268.987Z" stroke="black" stroke-linecap="round" stroke-linejoin="round"/>
<path d="M1183.09 88.7949C1176.16 92.4068 1168.92 95.8434 1166.48 102.959C1159.39 123.663 1203.63 126.172 1221.96 124.784C1254.35 122.328 1212.58 73.4482 1183.09 88.7949Z" stroke="black" stroke-linecap="round" stroke-linejoin="round"/>
<path d="M1201.88 105.875C1200.97 98.938 1194.04 94.5118 1184.62 96.7635C1182.94 97.1172 1181.37 97.8866 1180.07 99.0014C1178.76 100.116 1177.75 101.541 1177.14 103.145C1173.94 112.473 1189.77 111.19 1198 110.352C1198.55 110.32 1199.09 110.18 1199.58 109.938C1200.07 109.697 1200.51 109.36 1200.87 108.947C1201.24 108.534 1201.51 108.053 1201.68 107.532C1201.86 107.011 1201.93 106.461 1201.88 105.914L1201.88 105.875Z" stroke="black" stroke-linecap="round" stroke-linejoin="round"/>
<path d="M1174.37 386.443C1152.63 368.536 1120.35 364.868 1099.81 345.735C1077.78 325.208 1074.94 292.482 1057.59 268.282C1056.03 266.105 1054.17 263.875 1051.5 263.121C1046.9 261.821 1042.14 265.801 1041.13 270.231C1040.11 274.661 1041.74 279.206 1043.41 283.457C1054.09 310.701 1067.02 337.008 1082.06 362.105C1084.84 366.742 1087.72 371.375 1091.49 375.345C1101.82 386.214 1117.06 390.422 1131.44 394.277C1139.07 396.321 1147.03 398.011 1154.32 401.011C1164.43 405.169 1180.2 418.442 1182 399.617C1182.49 394.436 1178.52 389.858 1174.37 386.443Z" stroke="black" stroke-linecap="round" stroke-linejoin="round"/>
</g>
</svg>
