<svg xmlns="http://www.w3.org/2000/svg" width="768" height="467.027" viewBox="0 0 768 467.027">
  <g id="Group_3" data-name="Group 3" transform="translate(-202 -138)">
    <rect id="Rectangle_1" data-name="Rectangle 1" width="768" height="467.027" transform="translate(202 138)" fill="#f4f4f4"/>
    <g id="picture" transform="translate(547 343)" opacity="0.652">
      <g id="Group_2" data-name="Group 2">
        <g id="Group_1" data-name="Group 1">
          <path id="Path_1" data-name="Path 1" d="M71.712,72H6.519A6.607,6.607,0,0,0,0,78.676v42.729a6.607,6.607,0,0,0,6.519,6.676H71.712a5.9,5.9,0,0,0,1.091-.1,6.614,6.614,0,0,0,5.428-6.579V78.676A6.607,6.607,0,0,0,71.712,72ZM6.519,125.411a3.949,3.949,0,0,1-3.9-3.653l26-17.407,26.437,21.06Zm69.1-4.006a3.97,3.97,0,0,1-3.273,3.948,3.463,3.463,0,0,1-.639.057H59.3L42.029,111.643l15.448-12.65,18.147,11.151Zm0-14.376-17.583-10.8a1.279,1.279,0,0,0-1.486.1L39.909,109.961l-10.424-8.3a1.279,1.279,0,0,0-1.512-.064L2.608,118.577v-39.9a3.96,3.96,0,0,1,3.912-4.006H71.712a3.96,3.96,0,0,1,3.912,4.006Z" transform="translate(0 -72)"/>
          <path id="Path_2" data-name="Path 2" d="M199.629,120a7.744,7.744,0,1,0,7.629,7.743A7.687,7.687,0,0,0,199.629,120Zm0,12.906a5.163,5.163,0,1,1,5.086-5.162A5.125,5.125,0,0,1,199.629,132.906Z" transform="translate(-159.911 -109.583)"/>
        </g>
      </g>
    </g>
  </g>
</svg>
