<svg width="80" height="72" viewBox="0 0 80 72" fill="none" xmlns="http://www.w3.org/2000/svg">
<path d="M65.7761 23.2702C64.9462 22.9846 64.0862 22.7143 63.2008 22.4587C63.3463 21.8647 63.4799 21.2785 63.5986 20.7022C65.5481 11.2393 64.2735 3.61602 59.921 1.1061C55.7476 -1.30059 48.9223 1.20877 42.029 7.20775C41.3662 7.78461 40.7015 8.39536 40.037 9.03544C39.5943 8.61194 39.1523 8.20269 38.7114 7.81123C31.4871 1.39673 24.2458 -1.30643 19.8977 1.21076C15.7282 3.62442 14.4935 10.7911 16.2483 19.7591C16.4177 20.6253 16.6158 21.5099 16.8398 22.4093C15.815 22.7002 14.8256 23.0103 13.8789 23.3403C5.40916 26.2932 0 30.9212 0 35.7216C0 40.6795 5.80674 45.6523 14.6286 48.6676C15.3248 48.9056 16.0472 49.1306 16.7917 49.3442C16.55 50.3169 16.3398 51.2701 16.1634 52.1998C14.4902 61.0122 15.7969 68.0095 19.9552 70.408C24.2504 72.8848 31.4589 70.3389 38.4782 64.2032C39.033 63.7182 39.5897 63.2038 40.1475 62.6647C40.8705 63.3609 41.5923 64.0198 42.3103 64.6378C49.1093 70.4885 55.8244 72.8511 59.9789 70.446C64.2698 67.962 65.6643 60.4452 63.8538 51.2997C63.7155 50.6013 63.5546 49.8877 63.3739 49.1615C63.8802 49.0118 64.3771 48.8573 64.8617 48.6967C74.0329 45.658 80 40.7457 80 35.7216C80 30.9038 74.4164 26.2446 65.7761 23.2702ZM63.7869 45.4527C63.3494 45.5975 62.9006 45.7375 62.4432 45.8732C61.4308 42.6679 60.0643 39.2596 58.3921 35.7382C59.9878 32.3007 61.3015 28.936 62.2856 25.7515C63.1039 25.9883 63.8982 26.2381 64.6636 26.5017C72.0667 29.0502 76.5824 32.8182 76.5824 35.7216C76.5824 38.8142 71.7056 42.8288 63.7869 45.4527ZM60.5012 51.9634C61.3017 56.0074 61.4161 59.6637 60.8858 62.5219C60.4093 65.0902 59.4511 66.8026 58.2664 67.4883C55.7452 68.9476 50.3537 67.0508 44.5391 62.0471C43.8725 61.4736 43.2011 60.8611 42.5276 60.2129C44.7818 57.7475 47.0346 54.8815 49.2334 51.6984C53.1008 51.3553 56.7547 50.7942 60.0681 50.0282C60.2313 50.6866 60.3763 51.3322 60.5012 51.9634ZM27.2738 67.2362C24.8106 68.1061 22.8488 68.131 21.6629 67.4472C19.1394 65.9917 18.0904 60.3735 19.5213 52.8372C19.6852 51.9741 19.8803 51.0875 20.1052 50.1813C23.3823 50.906 27.0094 51.4275 30.886 51.7417C33.0996 54.8564 35.4176 57.7194 37.7535 60.2261C37.2432 60.7188 36.7348 61.1879 36.2293 61.6299C33.1254 64.343 30.015 66.268 27.2738 67.2362ZM15.7339 45.4337C11.8331 44.1005 8.61158 42.3676 6.40339 40.4767C4.41921 38.7774 3.41743 37.0904 3.41743 35.7216C3.41743 32.8085 7.76046 29.0929 15.0039 26.5674C15.8827 26.261 16.8028 25.9722 17.7576 25.701C18.7586 28.9573 20.0718 32.3619 21.6566 35.8047C20.0513 39.2986 18.7195 42.7575 17.7086 46.052C17.0279 45.8564 16.3685 45.6505 15.7339 45.4337ZM19.6022 19.1028C18.0988 11.4192 19.0973 5.62299 21.6099 4.16853C24.2863 2.61908 30.2045 4.82826 36.4422 10.3669C36.8409 10.7209 37.2412 11.0914 37.6426 11.4747C35.3182 13.9706 33.0215 16.812 30.8275 19.9083C27.0651 20.257 23.4635 20.8172 20.1522 21.5674C19.944 20.7299 19.7596 19.9072 19.6022 19.1028ZM54.1106 27.6238C53.319 26.2565 52.5063 24.9215 51.6779 23.6229C54.2304 23.9456 56.6759 24.3739 58.9725 24.8981C58.283 27.1079 57.4236 29.4183 56.412 31.7868C55.6864 30.4091 54.9188 29.02 54.1106 27.6238ZM40.0382 13.9172C41.6145 15.6249 43.1932 17.5317 44.7459 19.6004C43.1812 19.5265 41.5971 19.4881 40 19.4881C38.4179 19.4881 36.8456 19.5257 35.2906 19.5983C36.8449 17.5488 38.4372 15.6446 40.0382 13.9172ZM25.8756 27.6474C25.0849 29.0186 24.3316 30.4001 23.6173 31.7842C22.6221 29.424 21.7707 27.103 21.0752 24.8619C23.3577 24.3512 25.7917 23.9335 28.328 23.6169C27.4878 24.9274 26.6685 26.2723 25.8756 27.6471V27.6474ZM28.401 48.07C25.7806 47.7776 23.31 47.3815 21.028 46.8848C21.7346 44.6037 22.6048 42.2332 23.6211 39.8221C24.3373 41.2052 25.0935 42.5873 25.8891 43.9615H25.8893C26.6997 45.3614 27.5392 46.7327 28.401 48.07ZM40.1327 57.7669C38.5129 56.0192 36.8973 54.086 35.3193 52.0066C36.8511 52.0667 38.4128 52.0974 40 52.0974C41.6306 52.0974 43.2426 52.0607 44.8292 51.9901C43.2713 54.107 41.6984 56.0432 40.1327 57.7669ZM56.4447 39.6992C57.5139 42.1364 58.4153 44.4945 59.131 46.7367C56.8115 47.2658 54.3071 47.692 51.6685 48.0087C52.4989 46.6927 53.3187 45.3348 54.1243 43.938C54.9392 42.5248 55.713 41.1095 56.4447 39.6992ZM51.1639 42.2306C49.9134 44.3989 48.6295 46.4688 47.3261 48.4227C44.9522 48.5924 42.4997 48.6799 40 48.6799C37.5104 48.6799 35.0888 48.6025 32.7569 48.4512C31.401 46.4717 30.0892 44.3957 28.8466 42.2493H28.8469C27.6076 40.1087 26.467 37.9501 25.4334 35.8036C26.4667 33.6521 27.6043 31.491 28.8365 29.3543L28.8362 29.3548C30.0717 27.2124 31.3719 25.1465 32.7153 23.1794C35.0945 22.9995 37.5342 22.9057 39.9999 22.9057H40C42.4767 22.9057 44.9196 23.0002 47.2981 23.1816C48.621 25.1343 49.9124 27.1936 51.1527 29.3363C52.4071 31.503 53.5594 33.6497 54.6014 35.755C53.5625 37.8966 52.4128 40.0649 51.1639 42.2306ZM58.214 4.06685C60.8929 5.61174 61.9347 11.8423 60.2515 20.0124C60.1442 20.5337 60.0233 21.0647 59.892 21.6029C56.573 20.837 52.9688 20.2672 49.1954 19.9131C46.9972 16.7828 44.7192 13.937 42.4327 11.4732C43.0475 10.8818 43.6614 10.3179 44.2727 9.78574C50.1788 4.64585 55.6989 2.61652 58.214 4.06685ZM40 28.5778C43.9453 28.5778 47.1437 31.7761 47.1437 35.7216C47.1437 39.6669 43.9453 42.8653 40 42.8653C36.0547 42.8653 32.8563 39.6669 32.8563 35.7216C32.8563 31.7761 36.0547 28.5778 40 28.5778Z" fill="#BDC6CB"/>
</svg>
