<svg width="80" height="80" viewBox="0 0 80 80" fill="none" xmlns="http://www.w3.org/2000/svg">
<path d="M23.9976 24.6895H19.5798L31.6241 58.7359L38.3668 39.4674L33.1391 24.6895H28.4779V21.4453H49.1193V24.6895H44.2856L56.3297 58.7359L60.6591 46.3636C66.3384 30.5125 56.0043 25.5748 56.0043 22.0372C56.0043 18.4996 58.8721 15.632 62.4095 15.632C62.6009 15.632 62.7868 15.6423 62.9689 15.6593C56.975 10.0011 48.8929 6.53125 39.9996 6.53125C28.3792 6.53125 18.1434 12.4545 12.1429 21.4453H23.9973V24.6895H23.9976Z" fill="#BDC6CB"/>
<path d="M6.53122 40C6.53122 52.8136 13.7332 63.9435 24.309 69.5676L9.20513 26.8724C7.48459 30.9032 6.53122 35.3402 6.53122 40Z" fill="#BDC6CB"/>
<path d="M69.1276 23.5077C69.6064 26.3265 69.4614 29.4947 68.7268 32.6753H68.8599L68.3538 34.1213C68.054 35.1655 67.6764 36.2336 67.2475 37.2831L55.7313 69.546C66.2848 63.9151 73.4685 52.7972 73.4685 39.9999C73.4685 34.0032 71.8898 28.3757 69.1276 23.5077Z" fill="#BDC6CB"/>
<path d="M29.6778 71.8439C32.9293 72.8971 36.3975 73.4684 40 73.4684C43.436 73.4684 46.7508 72.9498 49.8712 71.9879L40.0813 44.3138L29.6778 71.8439Z" fill="#BDC6CB"/>
<path d="M68.2841 11.7157C60.7292 4.16071 50.6842 0 39.9998 0C29.3154 0 19.2706 4.16071 11.7157 11.7157C4.16071 19.2706 0 29.3154 0 40C0 50.6844 4.16071 60.7292 11.7157 68.2841C19.2706 75.8391 29.3156 79.9998 40 79.9998C50.6844 79.9998 60.7292 75.8391 68.2843 68.2841C75.8393 60.7292 80 50.6842 80 40C79.9998 29.3154 75.8391 19.2706 68.2841 11.7157ZM39.9998 77.1781C19.4997 77.1781 2.8217 60.5001 2.8217 40C2.8217 19.4999 19.4997 2.8217 39.9998 2.8217C60.4999 2.8217 77.1779 19.4999 77.1779 40C77.1779 60.5001 60.5001 77.1781 39.9998 77.1781Z" fill="#BDC6CB"/>
</svg>
