<svg width="124" height="33" viewBox="0 0 124 33" fill="none" xmlns="http://www.w3.org/2000/svg">
<path d="M73.0849 13.9273H76.3383V25.5334H73.0849V24.0246C71.923 25.7655 70.4125 25.8816 69.483 25.8816C65.881 25.8816 63.5572 23.0961 63.5572 19.7303C63.5572 16.2485 65.881 13.5791 69.2506 13.5791C70.1801 13.5791 71.923 13.6952 72.9687 15.4361V13.9273H73.0849ZM67.0429 19.7303C67.0429 21.5873 68.3211 22.98 70.2963 22.98C72.1554 22.98 73.5497 21.5873 73.5497 19.7303C73.5497 17.8734 72.2716 16.4806 70.2963 16.4806C68.4372 16.4806 67.0429 17.8734 67.0429 19.7303ZM82.7289 16.7128V25.5334H79.4755V16.7128H78.1974V13.9273H79.4755V9.98123H82.7289V13.9273H84.9366V16.7128H82.7289ZM92.6052 16.7128C91.7919 16.0164 91.0947 15.9003 90.7462 15.9003C89.9328 15.9003 89.4681 16.2485 89.4681 16.8288C89.4681 17.177 89.5842 17.5252 90.5138 17.8734L91.3271 18.1055C92.2567 18.4537 93.651 18.8019 94.2319 19.7303C94.5805 20.1946 94.8129 20.8909 94.8129 21.7034C94.8129 22.7479 94.4643 23.7925 93.5348 24.6049C92.6052 25.4173 91.4433 25.8816 90.049 25.8816C87.609 25.8816 86.3309 24.721 85.5175 23.9085L87.2604 21.9355C87.9576 22.6319 88.8871 23.3282 89.8166 23.3282C90.7462 23.3282 91.4433 22.864 91.4433 22.0516C91.4433 21.3552 90.8624 21.007 90.3976 20.8909L89.7004 20.6588C88.8871 20.3106 87.9576 19.9625 87.2604 19.2661C86.6794 18.6858 86.3309 17.9894 86.3309 17.0609C86.3309 15.9003 86.9118 14.9718 87.4928 14.3915C88.4223 13.6952 89.5842 13.5791 90.5138 13.5791C91.3271 13.5791 92.7214 13.6952 94.2319 14.8558L92.6052 16.7128ZM99.693 15.4361C100.855 13.8112 102.482 13.5791 103.411 13.5791C106.781 13.5791 109.105 16.2485 109.105 19.7303C109.105 23.2122 106.781 25.8816 103.295 25.8816C102.598 25.8816 100.855 25.7655 99.5768 24.0246V25.5334H96.4396V6.03516H99.693V15.4361ZM99.3444 19.7303C99.3444 21.5873 100.623 22.98 102.598 22.98C104.457 22.98 105.851 21.5873 105.851 19.7303C105.851 17.8734 104.573 16.4806 102.598 16.4806C100.623 16.4806 99.3444 17.8734 99.3444 19.7303ZM114.449 23.7925L108.872 13.9273H112.707L116.308 20.5428L119.562 13.9273H123.28L113.985 31.6846H110.266L114.449 23.7925ZM62.7438 15.9003H54.6104V19.15H58.9095C58.2123 21.3552 56.5856 22.864 53.5646 22.864C50.1951 22.864 47.755 20.0785 47.755 16.7128C47.755 13.347 50.0789 10.4455 53.4484 10.4455C55.3075 10.4455 57.1666 11.374 58.3285 12.8827L61.0009 11.1418C59.2581 8.70456 56.4694 7.31183 53.4484 7.31183C48.336 7.31183 44.1531 11.49 44.1531 16.7128C44.1531 21.9355 48.1036 26.1137 53.4484 26.1137C58.7933 26.1137 62.7438 21.9355 62.7438 16.7128C62.86 16.3646 62.7438 16.1325 62.7438 15.9003Z" fill="#7C8894"/>
<path d="M29.0481 16.2486H20.9146V18.5698H26.4918C25.6785 22.0517 23.1223 24.9532 19.7527 26.1138L6.39057 12.7668C7.78488 8.70467 11.7354 5.80315 16.2669 5.80315C19.7527 5.80315 22.8899 7.54406 24.8651 10.2135L26.608 8.70467C24.2842 5.57103 20.566 3.48193 16.2669 3.48193C10.2249 3.48193 5.11246 7.77619 3.83434 13.4632L19.1717 28.7832C24.7489 27.3905 29.0481 22.2838 29.0481 16.2486ZM3.48576 16.3647C3.48576 19.6144 4.76388 22.748 7.20392 25.1853C9.64395 27.6226 12.8973 28.8993 16.0345 28.8993L3.48576 16.3647Z" fill="white"/>
<path d="M16.2669 0C7.32011 0 0 7.31184 0 16.2485C0 25.1852 7.32011 32.497 16.2669 32.497C25.2137 32.497 32.5338 25.1852 32.5338 16.2485C32.5338 7.31184 25.2137 0 16.2669 0ZM7.20392 25.3013C4.76388 22.864 3.48577 19.6143 3.48577 16.4806L16.1507 29.0152C12.8973 28.8992 9.64396 27.7386 7.20392 25.3013ZM19.0555 28.667L3.83435 13.4631C5.11246 7.77608 10.2249 3.48183 16.2669 3.48183C20.566 3.48183 24.2842 5.57092 26.608 8.70457L24.8651 10.2134C22.8899 7.54396 19.7527 5.80304 16.2669 5.80304C11.7354 5.80304 7.90107 8.70457 6.39058 12.7667L19.7527 26.1137C23.1223 24.9531 25.6785 22.0516 26.4918 18.5697H20.9146V16.2485H29.0481C29.0481 22.2837 24.749 27.3904 19.0555 28.667Z" fill="#7C8894"/>
</svg>
