<svg width="164" height="45" viewBox="0 0 164 45" fill="none" xmlns="http://www.w3.org/2000/svg">
<path d="M40.203 44.3256C40.0347 44.3259 39.8691 44.2822 39.7225 44.1986C39.576 44.115 39.4534 43.9945 39.3669 43.8488L32.0156 31.4792L18.2671 35.2513C18.0577 35.3023 17.8374 35.2817 17.6408 35.1926C17.4443 35.1036 17.2826 34.9512 17.1812 34.7594L1.11441 4.29261C1.04062 4.15306 1.00138 3.99758 1.00004 3.83943C0.998691 3.68128 1.03528 3.52515 1.10668 3.38434C1.17809 3.24354 1.28219 3.12225 1.4101 3.03081C1.53802 2.93936 1.68596 2.88049 1.84132 2.85919L15.4821 1.00934C15.6706 0.982916 15.8626 1.01286 16.0343 1.09547C16.2061 1.17808 16.35 1.30972 16.4483 1.47406L32.901 29.1978L52.037 23.947L45.6564 14.8561C45.5643 14.7269 45.5048 14.577 45.483 14.4194C45.4612 14.2618 45.4778 14.1013 45.5312 13.9516C45.5846 13.8019 45.6734 13.6675 45.7898 13.5601C45.9062 13.4527 46.0467 13.3755 46.1993 13.3352L55.1511 11.2001C55.3299 11.1572 55.5172 11.1663 55.6911 11.2264C55.865 11.2865 56.0185 11.3951 56.1337 11.5396L63.8815 21.2989C63.9824 21.4259 64.0505 21.5763 64.0794 21.7365C64.1084 21.8967 64.0974 22.0616 64.0474 22.2164C63.9973 22.3712 63.9099 22.511 63.793 22.6232C63.676 22.7354 63.5332 22.8165 63.3774 22.8591L55.2408 25.0982L62.3648 35.2076C62.4521 35.3316 62.5096 35.4744 62.5327 35.6247C62.5559 35.7749 62.5441 35.9286 62.4982 36.0735C62.4524 36.2184 62.3738 36.3505 62.2686 36.4595C62.1634 36.5685 62.0345 36.6512 61.8922 36.7013L40.5111 44.2652C40.4119 44.3022 40.3073 44.3226 40.2015 44.3256H40.203ZM33.963 30.942L40.6263 42.1528L60.045 35.2951L53.2635 25.6505L33.963 30.942ZM3.48808 4.60192L18.5244 33.1495L31.003 29.7334L15.1112 3.03875L3.48808 4.60192ZM48.1093 14.9134L54.0921 23.4023L61.5138 21.3653L55.0568 13.2537L48.1093 14.9134ZM74.115 11.9501H76.0594V32.9835H74.1225L74.115 11.9501ZM95.0548 17.8089V32.9835H93.1448V30.3581C92.4044 31.2936 91.4726 32.0601 90.4137 32.6033C88.9726 33.2982 87.3517 33.5193 85.7794 33.2353C84.2071 32.9513 82.7629 32.1767 81.6504 31.0205C80.9146 30.275 80.3353 29.3876 79.9471 28.4114C79.5588 27.4351 79.3694 26.3899 79.3904 25.3381C79.3745 24.2965 79.5685 23.2624 79.9606 22.2986C80.3527 21.3348 80.9347 20.4614 81.6713 19.7312C82.3793 18.9807 83.2338 18.3864 84.1809 17.9857C85.128 17.585 86.1471 17.3866 87.174 17.4031C88.3406 17.388 89.4923 17.6596 90.5274 18.1982C91.5784 18.7736 92.4807 19.5903 93.1613 20.5822V17.8059L95.0548 17.8089ZM87.3221 19.3178C86.2698 19.3109 85.2351 19.5905 84.3272 20.1272C83.4193 20.6639 82.6718 21.4377 82.1634 22.3672C81.082 24.2653 81.082 26.5995 82.1634 28.4977C82.6764 29.4407 83.4318 30.2268 84.3501 30.773C85.2408 31.3094 86.2594 31.5911 87.2966 31.5878C88.3526 31.5881 89.3902 31.3093 90.306 30.7791C91.2229 30.2706 91.9812 29.5116 92.4927 28.5912C93.0145 27.6356 93.279 26.5587 93.26 25.4679C93.2821 24.655 93.1412 23.8459 92.8456 23.0893C92.55 22.3327 92.1059 21.6442 91.5399 21.0651C90.9942 20.4956 90.3377 20.046 89.6116 19.7446C88.8856 19.4431 88.1056 19.2963 87.3206 19.3133L87.3221 19.3178ZM98.6774 17.8089H100.655V20.027C101.15 19.2612 101.784 18.5972 102.524 18.07C103.127 17.6535 103.84 17.4276 104.57 17.4212C105.178 17.4413 105.771 17.6196 106.291 17.9387L105.276 19.5984C104.949 19.44 104.593 19.3502 104.229 19.3344C103.529 19.356 102.863 19.642 102.361 20.1356C101.676 20.8152 101.199 21.6787 100.985 22.6237C100.756 23.4888 100.641 25.236 100.641 27.8655V33.0001H98.664L98.6774 17.8089ZM122.908 17.8089V32.9835H120.999V30.3581C120.259 31.2936 119.327 32.0601 118.268 32.6033C116.827 33.2982 115.206 33.5193 113.634 33.2353C112.062 32.9513 110.617 32.1767 109.505 31.0205C108.769 30.275 108.19 29.3876 107.801 28.4114C107.413 27.4351 107.224 26.3899 107.245 25.3381C107.215 23.2333 108.038 21.2039 109.529 19.7312C110.237 18.9807 111.091 18.3864 112.038 17.9857C112.985 17.585 114.005 17.3866 115.031 17.4031C116.198 17.388 117.35 17.6596 118.385 18.1982C119.436 18.7736 120.338 19.5903 121.019 20.5822V17.8059L122.908 17.8089ZM115.175 19.3178C114.123 19.3109 113.088 19.5905 112.18 20.1272C111.272 20.6639 110.525 21.4377 110.016 22.3672C108.935 24.2653 108.935 26.5995 110.016 28.4977C110.529 29.4407 111.285 30.2268 112.203 30.773C113.094 31.3094 114.112 31.5911 115.15 31.5878C116.205 31.5881 117.243 31.3093 118.159 30.7791C119.076 30.2706 119.834 29.5116 120.346 28.5912C120.867 27.6356 121.132 26.5587 121.113 25.4679C121.137 24.6526 120.998 23.8407 120.702 23.0814C120.407 22.322 119.962 21.631 119.394 21.05C118.849 20.4809 118.193 20.0315 117.467 19.7301C116.742 19.4286 115.962 19.2816 115.178 19.2982L115.175 19.3178ZM125.844 17.8089H127.908L132.957 28.8689L137.953 17.8089H140.017L133.137 32.985H132.793L125.844 17.8089ZM155.619 27.9485L157.264 28.813C156.803 29.7735 156.175 30.6432 155.411 31.3811C154.723 32.0235 153.92 32.5275 153.045 32.8658C152.092 33.2187 151.084 33.3916 150.07 33.3758C147.617 33.3758 145.697 32.5711 144.311 30.9616C142.973 29.4477 142.237 27.4874 142.247 25.4588C142.228 23.5909 142.848 21.7727 144.005 20.3287C144.698 19.4031 145.601 18.6589 146.639 18.159C147.677 17.659 148.819 17.4179 149.968 17.4559C151.15 17.4167 152.325 17.6634 153.393 18.1752C154.462 18.687 155.394 19.4492 156.111 20.3981C157.2 21.7863 157.748 23.5215 157.756 25.6037H144.213C144.19 27.2136 144.791 28.7678 145.888 29.9371C146.4 30.4853 147.021 30.919 147.71 31.2101C148.399 31.5012 149.14 31.6432 149.887 31.627C150.65 31.6277 151.408 31.4912 152.123 31.2242C152.798 30.9827 153.423 30.6208 153.97 30.1559C154.625 29.5186 155.18 28.785 155.617 27.9801L155.619 27.9485ZM155.619 23.8745C155.424 22.9713 155.039 22.1208 154.491 21.3804C153.964 20.7316 153.294 20.216 152.535 19.8746C151.737 19.4974 150.867 19.3012 149.986 19.3012C148.582 19.2726 147.22 19.7865 146.179 20.7376C145.405 21.4418 144.819 22.4829 144.422 23.861L155.619 23.8745ZM161.063 11.9666H163V33.0001H161.063V11.9666Z" fill="#7C8894" stroke="#7C8894" stroke-width="0.5"/>
</svg>
