<svg width="191" height="36" viewBox="0 0 191 36" fill="none" xmlns="http://www.w3.org/2000/svg">
<path d="M108.875 12.9364H101.179V13.7529C103.586 13.7529 103.973 14.2688 103.973 17.3219V22.826C103.973 25.8787 103.586 26.4378 101.179 26.4378C99.3301 26.18 98.0827 25.1908 96.3628 23.2989L94.3851 21.1492C97.0508 20.6756 98.4694 18.9991 98.4694 17.1069C98.4694 14.7424 96.449 12.9364 92.6648 12.9364H85.0972V13.7529C87.5047 13.7529 87.8918 14.2688 87.8918 17.3219V22.826C87.8918 25.8787 87.5047 26.4378 85.0972 26.4378V27.2547H93.6537V26.4378C91.2462 26.4378 90.8591 25.8787 90.8591 22.826V21.2784H91.5898L96.3628 27.2547H108.875C115.024 27.2547 117.69 23.9872 117.69 20.0738C117.69 16.1611 115.024 12.9364 108.875 12.9364ZM90.8595 19.9445V14.2265H92.6221C94.5567 14.2265 95.417 15.5593 95.417 17.1072C95.417 18.6124 94.5567 19.9449 92.6221 19.9449H90.8595V19.9445ZM109.005 25.9218H108.703C107.156 25.9218 106.941 25.5351 106.941 23.557V14.2265H109.005C113.476 14.2265 114.293 17.4939 114.293 20.0311C114.293 22.6536 113.476 25.9218 109.005 25.9218ZM61.1482 21.5362L64.1151 12.764C64.9754 10.2272 64.5884 9.49655 61.8365 9.49655V8.63623H69.9201V9.49655C67.2113 9.49655 66.5664 10.1414 65.4914 13.2803L60.5891 27.9857H60.0304L55.6441 14.527L51.1727 27.9857H50.6137L45.841 13.2803C44.8091 10.1414 44.1211 9.49655 41.6271 9.49655V8.63623H51.1727V9.49655C48.6356 9.49655 47.9473 10.0983 48.8507 12.764L51.7314 21.5362L56.0743 8.63623H56.8915L61.1482 21.5362ZM75.767 27.8134C71.0375 27.8134 67.1675 24.3308 67.1675 20.0734C67.1675 15.8598 71.0378 12.3766 75.767 12.3766C80.4969 12.3766 84.3665 15.8598 84.3665 20.0734C84.3665 24.3308 80.4969 27.8134 75.767 27.8134ZM75.767 13.7105C71.8116 13.7105 70.4353 17.2788 70.4353 20.0738C70.4353 22.9122 71.8116 26.4378 75.767 26.4378C79.7663 26.4378 81.1422 22.9122 81.1422 20.0738C81.1422 17.2788 79.7663 13.7105 75.767 13.7105Z" fill="#7C8894"/>
<path d="M128.31 26.3946V27.2545H118.463V26.3946C121.345 26.3946 121.861 25.6639 121.861 21.3634V14.4841C121.861 10.1837 121.345 9.49606 118.463 9.49606V8.63574H127.364C131.793 8.63574 134.244 10.9147 134.244 13.9682C134.244 16.9351 131.793 19.2568 127.364 19.2568H124.913V21.363C124.913 25.6639 125.429 26.3946 128.31 26.3946ZM127.364 10.1837H124.913V17.6658H127.364C129.772 17.6658 130.89 15.989 130.89 13.9682C130.89 11.9043 129.772 10.1837 127.364 10.1837ZM163.783 23.2129L163.568 23.9867C163.181 25.4057 162.708 25.9217 159.655 25.9217H159.053C156.817 25.9217 156.43 25.4057 156.43 22.353V20.3753C159.784 20.3753 160.042 20.6758 160.042 22.912H160.859V16.5049H160.042C160.042 18.7408 159.784 19.0417 156.43 19.0417V14.2263H158.795C161.848 14.2263 162.321 14.7423 162.708 16.1613L162.923 16.9778H163.611L163.31 12.9362H150.668V13.7527C153.076 13.7527 153.463 14.2687 153.463 17.3218V22.8259C153.463 25.6186 153.135 26.3222 151.236 26.4225C149.432 26.1469 148.193 25.1628 146.498 23.2988L144.52 21.1491C147.186 20.6754 148.605 18.999 148.605 17.1067C148.605 14.7423 146.584 12.9362 142.801 12.9362H135.233V13.7527C137.641 13.7527 138.028 14.2687 138.028 17.3218V22.8259C138.028 25.8786 137.641 26.4377 135.233 26.4377V27.2545H143.79V26.4377C141.382 26.4377 140.995 25.8786 140.995 22.8259V21.2783H141.726L146.499 27.2545H164.171L164.429 23.2133H163.783V23.2129ZM140.995 19.9444V14.2263H142.757C144.692 14.2263 145.553 15.5592 145.553 17.1071C145.553 18.6123 144.692 19.9448 142.757 19.9448H140.995V19.9444ZM172.512 27.8132C170.792 27.8132 169.286 26.9106 168.642 26.3511C168.427 26.5666 168.04 27.2114 167.954 27.8132H167.137V21.8801H167.997C168.341 24.7178 170.318 26.3946 172.856 26.3946C174.231 26.3946 175.35 25.6208 175.35 24.3311C175.35 23.2133 174.361 22.353 172.598 21.5361L170.147 20.3753C168.427 19.5577 167.137 18.1387 167.137 16.2471C167.137 14.1833 169.072 12.4206 171.738 12.4206C173.157 12.4206 174.36 12.9366 175.092 13.5384C175.306 13.3664 175.522 12.8931 175.651 12.3768H176.468V17.4511H175.565C175.263 15.4299 174.146 13.7531 171.867 13.7531C170.663 13.7531 169.545 14.4411 169.545 15.5164C169.545 16.6342 170.448 17.236 172.512 18.1821L174.876 19.343C176.941 20.3318 177.757 21.9236 177.757 23.2133C177.757 25.9217 175.392 27.8132 172.512 27.8132ZM185.755 27.8132C184.035 27.8132 182.529 26.9106 181.885 26.3511C181.67 26.5666 181.283 27.2114 181.197 27.8132H180.38V21.8801H181.24C181.584 24.7178 183.562 26.3946 186.099 26.3946C187.475 26.3946 188.593 25.6208 188.593 24.3311C188.593 23.2133 187.604 22.353 185.841 21.5361L183.39 20.3753C181.67 19.5577 180.38 18.1387 180.38 16.2471C180.38 14.1833 182.315 12.4206 184.981 12.4206C186.4 12.4206 187.603 12.9366 188.335 13.5384C188.549 13.3664 188.764 12.8931 188.893 12.3768H189.71V17.4511H188.808C188.506 15.4299 187.389 13.7531 185.11 13.7531C183.906 13.7531 182.788 14.4411 182.788 15.5164C182.788 16.6342 183.691 17.236 185.755 18.1821L188.119 19.343C190.184 20.3318 191 21.9236 191 23.2133C191 25.9217 188.635 27.8132 185.755 27.8132Z" fill="#7C8894"/>
<path d="M2.50968 17.6554C2.50968 23.6506 5.99377 28.8316 11.046 31.2868L3.821 11.4913C2.9806 13.375 2.50968 15.4595 2.50968 17.6554ZM27.8808 16.891C27.8808 15.0192 27.2084 13.7228 26.6317 12.7138C25.864 11.4662 25.1443 10.4096 25.1443 9.16199C25.1443 7.76968 26.2003 6.47363 27.6877 6.47363C27.7549 6.47363 27.8186 6.48199 27.884 6.48573C25.1893 4.01698 21.5991 2.50968 17.6559 2.50968C12.3645 2.50968 7.70916 5.22456 5.00091 9.33665C5.35627 9.34731 5.69116 9.3548 5.97561 9.3548C7.55987 9.3548 10.0122 9.16257 10.0122 9.16257C10.8287 9.11444 10.9249 10.3137 10.1093 10.4102C10.1093 10.4102 9.2888 10.5068 8.37577 10.5546L13.8914 26.9606L17.206 17.0196L14.8462 10.554C14.0306 10.5062 13.2579 10.4096 13.2579 10.4096C12.4418 10.3618 12.5374 9.11386 13.3536 9.16199C13.3536 9.16199 15.8549 9.35423 17.3432 9.35423C18.9272 9.35423 21.3798 9.16199 21.3798 9.16199C22.1969 9.11386 22.2928 10.3131 21.4769 10.4096C21.4769 10.4096 20.6547 10.5062 19.7434 10.554L25.217 26.8358L26.7277 21.7873C27.3825 19.6924 27.8808 18.1877 27.8808 16.891ZM17.9217 18.9802L13.3773 32.1854C14.7341 32.5843 16.1691 32.8025 17.6559 32.8025C19.4197 32.8025 21.1112 32.4976 22.6857 31.9439C22.645 31.8791 22.6081 31.8102 22.5779 31.7353L17.9217 18.9802ZM30.9462 10.3886C31.0113 10.871 31.0482 11.3889 31.0482 11.946C31.0482 13.483 30.7611 15.2108 29.8965 17.3712L25.27 30.7476C29.7729 28.1218 32.8016 23.2433 32.8016 17.6556C32.8019 15.0223 32.1292 12.5461 30.9462 10.3886ZM17.6559 0C7.9207 0 0 7.92013 0 17.6554C0 27.3917 7.9207 35.3116 17.6559 35.3116C27.3909 35.3116 35.3127 27.3917 35.3127 17.6554C35.3124 7.92013 27.3909 0 17.6559 0ZM17.6559 34.5023C8.36713 34.5023 0.809564 26.9447 0.809564 17.6554C0.809564 8.36655 8.36684 0.809564 17.6559 0.809564C26.9444 0.809564 34.5014 8.36655 34.5014 17.6554C34.5014 26.9447 26.9444 34.5023 17.6559 34.5023Z" fill="#7C8894"/>
</svg>
